<svg width="32" height="32" viewBox="0 0 32 32" fill="none" xmlns="http://www.w3.org/2000/svg">
<path d="M27.2683 3.59554H1.13618C0.50773 3.59554 0 4.10327 0 4.73172V30.8639C0 31.4923 0.50773 32 1.13618 32H27.2683C27.8968 32 28.4045 31.4923 28.4045 30.8639V4.73172C28.4045 4.10327 27.8968 3.59554 27.2683 3.59554ZM26.6667 30.2223H1.77778V5.33338H26.6667V30.2223Z" fill="#E11C4B"/>
<path d="M5.39323 0C4.67413 0 4.31458 0.359551 4.31458 1.07865V2.1573V3.23596H6.04441V1.77778H30.4L30.2222 25.9556H28.8V27.6854H30.9213C31.8202 27.6854 32 27.3258 32 26.2472V1.4382C32 0.359551 31.7343 0.00689603 30.7415 0H5.39323Z" fill="#E11C4B"/>
</svg>
