<svg xmlns="http://www.w3.org/2000/svg"><style>:root svg:not(:target){display:none}</style><svg id="icon-arrow" viewBox="0 0 8 16"><path d="M1.135 15.498c-.265 0-.521-.086-.725-.246-.115-.09-.21-.2-.28-.324a1.024 1.024 0 0 1 .133-1.183l5.077-5.73L.444 2.274a1.05 1.05 0 0 1-.207-.37 1.011 1.011 0 0 1 .092-.817C.401.964.498.855.614.767.731.668.869.595 1.017.55a1.198 1.198 0 0 1 .903.087c.136.073.255.171.349.289L7.742 7.34c.167.191.258.431.258.679 0 .248-.091.488-.258.679l-5.666 6.414a1.13 1.13 0 0 1-.422.299 1.193 1.193 0 0 1-.519.086Z"></path></svg><svg fill="none" id="icon-email" viewBox="0 0 20 12"><path d="M4.377 8.218 1.213 11.07a1.661 1.661 0 0 1-.206-.818V.91l5.736 5.177m6.176.3 6.08-5.495v9.361c0 .303-.071.582-.197.8l-4.42-3.959M1.236.764 1.214.75m5.529 5.336 1.61 1.456c.087.078.173.144.26.2.875.635 1.895.635 2.767-.003.083-.056.17-.127.248-.197l1.622-1.463"></path><path d="m14.354 7.068 4.448 3.984c-.151.271-.386.447-.645.447H1.851c-.253 0-.483-.165-.638-.43l4.351-3.921"></path><path d="M1.897 11.5s-.991.05-.89-1.58M14.975.5h3.408c.212 0 .418.123.566.32a.504.504 0 0 1 .05.071l-5.75 5.188-1.622 1.463c-.079.07-.165.14-.248.197-.872.638-1.892.638-2.767.004a2.148 2.148 0 0 1-.26-.201l-1.61-1.456L1.006.91l.05-.07C1.209.626 1.414.5 1.637.5h13.339Z"></path></svg><svg id="icon-favourites" viewBox="0 0 24 24"><path d="M16.65 0a7.574 7.574 0 0 0-2.927.635l-.044.02-.045.025a7.344 7.344 0 0 0-1.673 1.266c-2.68-2.512-6.947-2.694-9.867.157l-.03.03-.026.03C-.523 5.06-.463 9.523 1.072 13.05l.013.028.014.029c1.808 3.627 5.184 6.709 8.26 9.242l.009.008.007.006c.197.157.538.482.93.802.394.32.838.67 1.487.805l.146.03.146-.013c.682-.064.95-.336 1.397-.642.448-.305.944-.693 1.453-1.117a42.864 42.864 0 0 0 2.727-2.487c.009-.01.023-.022.032-.03l.004-.005c1.441-1.332 2.869-2.868 4.079-4.674v-.002l.008-.01c1.919-2.799 2.85-6.571 1.74-10.288l-.02-.066-.027-.062C22.23 1.684 19.549-.032 16.65 0Zm.034 2.287c2.09-.052 3.92 1.16 4.829 3.232.84 2.9.114 5.857-1.45 8.133l-.005.005-.003.006c-1.09 1.629-2.41 3.055-3.777 4.316l-.018.017-.017.018a41.55 41.55 0 0 1-2.611 2.381c-.476.397-.933.752-1.288.993-.133.091-.26.153-.364.201a3.243 3.243 0 0 1-.392-.273c-.29-.236-.599-.537-.935-.806l-.016-.013c-2.986-2.46-6.131-5.448-7.644-8.46-1.228-2.842-1.174-6.243.56-8.241 2.36-2.272 5.863-1.778 7.61.553l.852 1.135.823-1.158a5.225 5.225 0 0 1 1.725-1.56 5.815 5.815 0 0 1 2.121-.479Z"></path></svg><svg id="icon-home" viewBox="0 0 20 24"><path d="M2.222 24h15.556c.59 0 1.154-.253 1.571-.703A2.5 2.5 0 0 0 20 21.6V10.8c0-.157-.027-.314-.082-.46a1.213 1.213 0 0 0-.24-.391l-8.89-9.6A1.07 1.07 0 0 0 10.006 0a1.07 1.07 0 0 0-.783.349l-8.889 9.6a1.208 1.208 0 0 0-.245.39A1.283 1.283 0 0 0 0 10.8v10.8a2.5 2.5 0 0 0 .65 1.697c.418.45.983.703 1.572.703Zm5.556-2.4v-6h4.444v6H7.778ZM2.222 11.292 10 2.893l7.778 8.4V21.6h-3.334v-6a2.5 2.5 0 0 0-.65-1.697 2.143 2.143 0 0 0-1.572-.703H7.778c-.59 0-1.155.253-1.572.703a2.5 2.5 0 0 0-.65 1.697v6H2.222V11.292Z"></path></svg><svg id="icon-logo" viewBox="0 0 148 14"><path d="M4.997 2.937c-.556 0-1.107.08-1.651.243-.545.15-1.078.336-1.6.556l-.834-2.12A10.617 10.617 0 0 1 2.859.988a9.468 9.468 0 0 1 2.19-.243c.916 0 1.727.145 2.434.435a4.537 4.537 0 0 1 1.809 1.251c.498.545.875 1.217 1.13 2.017.266.788.4 1.687.4 2.695 0 1.275-.215 2.393-.644 3.355a4.863 4.863 0 0 1-1.982 2.226c-.88.521-2.01.782-3.39.782-.707 0-1.35-.052-1.93-.156a10.327 10.327 0 0 1-1.738-.487v-2.208c.66.209 1.269.37 1.825.487.568.116 1.13.174 1.686.174.534 0 1.003-.064 1.409-.192a2.855 2.855 0 0 0 1.043-.59c.29-.267.516-.598.678-.992.162-.405.255-.87.278-1.39h-5.39V5.996H8.04a3.633 3.633 0 0 0-.244-1.287 2.64 2.64 0 0 0-.626-.956 2.648 2.648 0 0 0-.956-.609 3.35 3.35 0 0 0-1.217-.208Zm19.708 10.396H22.08V3.11h-3.043l-.226 1.74a61.98 61.98 0 0 1-.243 1.912 57.86 57.86 0 0 1-.261 1.825 34.068 34.068 0 0 1-.278 1.513c-.15.718-.354 1.332-.609 1.843-.243.51-.585.898-1.025 1.164-.43.267-.991.4-1.687.4-.232 0-.452-.017-.66-.052a4.406 4.406 0 0 1-.592-.139V11.16c.151.046.296.087.435.122.15.035.313.052.487.052a.777.777 0 0 0 .573-.226c.151-.15.284-.406.4-.765.116-.37.232-.88.348-1.53.058-.278.128-.672.209-1.182.08-.522.174-1.13.278-1.826A103.29 103.29 0 0 0 16.864.92h7.841v12.413Zm12.102 0h-7.145V.92h7.145v2.156h-4.52v2.73h4.208V7.96h-4.208v3.2h4.52v2.172Zm14.528 0h-2.99L43.84 7.04v6.293h-2.625V.92h2.625v6.015L48.292.92h2.8L46.57 6.883l4.764 6.45Zm8.169 0h-2.625V3.11h-3.373V.92h9.37v2.19h-3.372v10.223ZM70.58.92c1.6 0 2.765.348 3.495 1.043.742.684 1.112 1.628 1.112 2.834 0 .545-.08 1.066-.243 1.565a3.453 3.453 0 0 1-.817 1.32c-.37.383-.864.685-1.478.905-.614.22-1.373.33-2.277.33h-1.13v4.416h-2.626V.92h3.964Zm-.139 2.156h-1.2V6.76h.87c.498 0 .927-.063 1.286-.19.36-.128.638-.331.835-.61.197-.277.296-.637.296-1.077 0-.614-.169-1.066-.505-1.356-.336-.302-.863-.452-1.582-.452Zm20.184 4.033c0 .962-.122 1.837-.365 2.625a5.452 5.452 0 0 1-1.078 2.017c-.475.568-1.09 1.003-1.843 1.304-.742.302-1.617.452-2.625.452-1.009 0-1.89-.15-2.643-.452a4.974 4.974 0 0 1-1.843-1.304c-.475-.568-.834-1.246-1.078-2.034-.232-.788-.348-1.663-.348-2.625 0-1.287.21-2.405.626-3.356a4.82 4.82 0 0 1 1.948-2.208c.88-.533 1.999-.8 3.355-.8 1.345 0 2.452.267 3.32.8.87.522 1.513 1.264 1.93 2.226.43.95.644 2.069.644 3.355Zm-9.058 0c0 .87.11 1.617.33 2.243.22.626.562 1.107 1.026 1.443.464.336 1.06.504 1.79.504.754 0 1.357-.168 1.809-.504.463-.336.8-.817 1.008-1.443.22-.626.33-1.373.33-2.243 0-1.31-.243-2.335-.73-3.077-.486-.742-1.286-1.113-2.399-1.113-.742 0-1.344.168-1.808.504-.464.337-.806.818-1.026 1.443-.22.626-.33 1.374-.33 2.243Zm18.723-4.172c-.499 0-.945.098-1.34.295a2.731 2.731 0 0 0-.973.852c-.266.36-.47.8-.608 1.321a7.409 7.409 0 0 0-.192 1.756c0 .881.105 1.635.313 2.26.22.615.563 1.084 1.026 1.409.464.324 1.055.487 1.774.487.51 0 1.014-.058 1.512-.174.51-.116 1.061-.278 1.652-.487v2.208a8.857 8.857 0 0 1-1.617.487 9.364 9.364 0 0 1-1.791.156c-1.275 0-2.33-.26-3.164-.782-.823-.533-1.431-1.275-1.826-2.226-.394-.962-.59-2.08-.59-3.355 0-.939.127-1.797.382-2.573.255-.788.626-1.466 1.112-2.034a5.106 5.106 0 0 1 1.826-1.322c.73-.313 1.565-.469 2.504-.469.614 0 1.228.081 1.842.243.626.151 1.223.36 1.791.626l-.852 2.139c-.463-.22-.933-.412-1.408-.574a4.138 4.138 0 0 0-1.373-.243ZM107.917.92h2.365v5.998c0 .29-.006.614-.018.974a271.542 271.542 0 0 1-.069 1.947 8.574 8.574 0 0 1-.035.504h.052L115.949.92h3.147v12.413h-2.347V7.37c0-.313.006-.655.017-1.026l.035-1.095c.023-.348.041-.65.052-.904.024-.267.041-.44.053-.522h-.07l-5.755 9.51h-3.164V.92Zm20.919 12.413h-2.625V3.11h-3.373V.92h9.371v2.19h-3.373v10.223ZM135.949.92h2.364v5.998c0 .29-.005.614-.017.974l-.035 1.06a84.02 84.02 0 0 1-.034.887 8.574 8.574 0 0 1-.035.504h.052L143.981.92h3.147v12.413h-2.347V7.37c0-.313.006-.655.017-1.026l.035-1.095c.023-.348.041-.65.052-.904.023-.267.041-.44.052-.522h-.069l-5.755 9.51h-3.164V.92Z"></path></svg><svg id="icon-percent" viewBox="0 0 18 19"><path d="M0 4.12c0-1.075.393-1.945 1.178-2.61C1.964.837 2.993.5 4.266.5c1.292 0 2.33.333 3.115.998.786.657 1.179 1.551 1.179 2.681v.866c0 1.082-.393 1.952-1.179 2.61-.785.657-1.814.985-3.088.985-1.282 0-2.32-.328-3.115-.986C.393 6.99 0 6.095 0 4.973v-.854Zm2.6.925c0 .481.154.87.46 1.166.317.289.728.433 1.233.433.506 0 .908-.148 1.206-.445.298-.296.447-.693.447-1.19v-.89c0-.48-.15-.87-.447-1.166-.298-.297-.709-.445-1.233-.445-.496 0-.898.148-1.205.445-.307.288-.46.693-.46 1.214v.878Zm6.827 8.922c0-1.082.397-1.952 1.191-2.61.795-.665 1.824-.997 3.088-.997 1.283 0 2.317.328 3.102.986.795.649 1.192 1.547 1.192 2.693v.866c0 1.074-.388 1.944-1.165 2.609-.776.657-1.81.986-3.101.986-1.3 0-2.344-.333-3.129-.998-.786-.665-1.178-1.547-1.178-2.645v-.89Zm2.6.938c0 .44.163.817.488 1.13.325.313.731.469 1.219.469 1.101 0 1.652-.541 1.652-1.623v-.914c0-.481-.153-.866-.46-1.154-.308-.297-.714-.445-1.22-.445-.505 0-.911.148-1.218.445-.307.288-.46.685-.46 1.19v.902Zm-6.962 2.044-1.91-.914 9.63-13.683 1.91.914-9.63 13.683Z"></path></svg><svg fill="none" id="icon-place" viewBox="0 0 18 24"><path d="M8.898 22.948a640.148 640.148 0 0 0-3.177-4.557c-1.576-2.246-2.647-3.771-3.38-4.99-.561-.932-.886-1.627-1.078-2.274C1.073 10.486 1 9.845 1 9a8 8 0 1 1 16 0c0 .845-.073 1.487-.263 2.127-.192.647-.517 1.341-1.077 2.274-.734 1.219-1.805 2.744-3.381 4.99a644.309 644.309 0 0 0-3.177 4.556.125.125 0 0 1-.205 0l-.822.569.823-.568ZM9 13.75a4.75 4.75 0 1 0 0-9.5 4.75 4.75 0 0 0 0 9.5Z"></path></svg><svg id="icon-purchases" viewBox="0 0 24 24"><path fill="#fff" d="M0 0h24v24H0z"></path><path d="M5.333 6V3.6c0-.695.224-1.375.644-1.958A3.915 3.915 0 0 1 7.7.314 4.405 4.405 0 0 1 9.95.043c.762.107 1.475.41 2.05.874a4.203 4.203 0 0 1 2.05-.874 4.405 4.405 0 0 1 2.25.27 3.916 3.916 0 0 1 1.723 1.329c.42.583.644 1.263.644 1.958V6h2c.53 0 1.039.19 1.414.527.375.338.586.796.586 1.273v12.006c0 1.112-.491 2.18-1.365 2.966S19.242 24 18.007 24H6.667c-1.415 0-2.771-.506-3.772-1.406-1-.9-1.562-2.121-1.562-3.394V7.8c0-.477.211-.935.586-1.273A2.118 2.118 0 0 1 3.333 6h2Zm8.847 16.2a3.892 3.892 0 0 1-.833-2.394V7.8H3.333v11.4c0 .394.087.784.254 1.148a3 3 0 0 0 .723.973c.31.279.677.5 1.081.65.405.151.838.229 1.276.229h7.513ZM11.333 6V3.6c0-.477-.21-.935-.585-1.273A2.118 2.118 0 0 0 9.333 1.8c-.53 0-1.039.19-1.414.527A1.714 1.714 0 0 0 7.333 3.6V6h4Zm2 0h3.334V3.6c0-.37-.127-.732-.364-1.035a1.99 1.99 0 0 0-.959-.659 2.211 2.211 0 0 0-1.205-.042 2.033 2.033 0 0 0-1.014.589c.135.36.208.746.208 1.147V6Zm2.014 13.806c0 .635.28 1.244.779 1.693a2.817 2.817 0 0 0 1.88.701c.706 0 1.383-.252 1.882-.701.498-.45.779-1.058.779-1.693V7.8h-5.32v12.006Z"></path></svg><svg id="icon-search" viewBox="0 0 18 18"><path d="M7.698 15.395a7.652 7.652 0 0 0 4.712-1.625L16.64 18 18 16.64l-4.23-4.23a7.65 7.65 0 0 0 1.625-4.713C15.395 3.453 11.942 0 7.698 0 3.453 0 0 3.453 0 7.697s3.453 7.698 7.698 7.698Zm0-13.47a5.779 5.779 0 0 1 5.773 5.772 5.779 5.779 0 0 1-5.773 5.773 5.779 5.779 0 0 1-5.774-5.773 5.779 5.779 0 0 1 5.774-5.773Z"></path></svg><svg id="icon-shop" viewBox="0 0 24 24"><path d="M23.1 4.803V.96a.959.959 0 0 0-.96-.96H1.86A.959.959 0 0 0 .9.96v3.843a.96.96 0 0 0-.9.957v3.951a5.31 5.31 0 0 0 .432 2.112c.129.306.288.594.468.867v10.35c0 .528.429.96.96.96h20.28c.531 0 .96-.429.96-.96V12.69a5.363 5.363 0 0 0 .9-2.979V5.76a.96.96 0 0 0-.9-.957ZM3.06 2.16h17.88V4.8H3.06V2.16Zm10.86 19.683h-3.84V18.72h3.84v3.123Zm7.02 0h-5.1V17.76a.959.959 0 0 0-.96-.96H9.12a.959.959 0 0 0-.96.96v4.083h-5.1v-7.266a5.407 5.407 0 0 0 2.382.543c.732 0 1.44-.141 2.112-.423a5.485 5.485 0 0 0 1.161-.663.02.02 0 0 1 .018 0c.358.268.748.49 1.161.663.669.282 1.38.423 2.112.423.732 0 1.44-.141 2.112-.423a5.485 5.485 0 0 0 1.161-.663.02.02 0 0 1 .018 0c.358.268.748.49 1.161.663.669.282 1.38.423 2.112.423.732 0 1.44-.141 2.112-.423.09-.039.18-.078.27-.12v7.266h-.012Zm.9-12.132c0 1.794-1.47 3.249-3.279 3.249a3.286 3.286 0 0 1-2.856-1.647.48.48 0 0 0-.417-.243h-.018a.484.484 0 0 0-.417.243A3.277 3.277 0 0 1 12 12.96a3.28 3.28 0 0 1-2.85-1.641.495.495 0 0 0-.858 0 3.288 3.288 0 0 1-2.853 1.641c-1.809 0-3.279-1.455-3.279-3.249V6.975c0-.009.006-.015.015-.015h19.65c.009 0 .015.006.015.015v2.736Z"></path></svg><svg id="icon-shopping-cart" viewBox="0 0 24 24"><path d="M18.036 20c-1.085 0-1.965.895-1.965 2s.88 2 1.965 2S20 23.105 20 22s-.88-2-1.964-2Zm-7.072 0C9.88 20 9 20.895 9 22s.88 2 1.964 2c1.085 0 1.965-.895 1.965-2s-.88-2-1.965-2Z"></path><path fill-rule="evenodd" clip-rule="evenodd" d="M18.036 21c-.516 0-.965.43-.965 1 0 .57.449 1 .965 1s.964-.43.964-1c0-.57-.448-1-.964-1Zm-7.072 0c-.516 0-.964.43-.964 1 0 .57.448 1 .964 1s.965-.43.965-1c0-.57-.449-1-.965-1Zm5.107 1c0-1.105.88-2 1.965-2S20 20.895 20 22s-.88 2-1.964 2c-1.085 0-1.965-.895-1.965-2ZM9 22c0-1.105.88-2 1.964-2 1.085 0 1.965.895 1.965 2s-.88 2-1.965 2S9 23.105 9 22ZM0 1a1 1 0 0 1 1-1h4.68a1 1 0 0 1 .968.744l1.29 4.873H23a1 1 0 0 1 .94 1.342l-3.745 10.298a1 1 0 0 1-.94.658H9.894a1 1 0 0 1-.967-.744L4.91 2H1a1 1 0 0 1-1-1Zm8.467 6.617 2.196 8.298h7.892l3.017-8.298H8.467Z"></path></svg><svg id="icon-slider-arrow" viewBox="0 0 18 18"><circle cx="9" cy="9" r="8.5"></circle><path d="m8.229 6.943 2.057 1.928L8.229 10.8"></path></svg><svg fill="none" id="icon-tel" viewBox="0 0 18 18"><path d="m11.908 13.537.364.045.26-.26 1.547-1.548a.766.766 0 0 1 .383-.204l-.15-.735.15.735a.766.766 0 0 1 .434.038l1.88.751h.003a.758.758 0 0 1 .471.694v3.453a.752.752 0 0 1-.786.743c-6.371-.398-10.143-3.276-12.406-6.542C1.772 7.407 1 3.67.754 1.583A.753.753 0 0 1 1.506.75H4.851a.744.744 0 0 1 .69.47l.753 1.89.002.004a.746.746 0 0 1-.161.807l-1.55 1.55-.266.267.055.373.742-.11-.742.111v.003l.001.006.003.019a3.965 3.965 0 0 0 .055.282A10.436 10.436 0 0 0 5.67 9.506c1.06 1.748 2.96 3.622 6.238 4.03Z"></path></svg><svg id="icon-telegram" viewBox="0 0 18 18"><path d="M15.499 2.788 2.2 7.915c-.907.365-.902.871-.166 1.097l3.414 1.065 7.899-4.984c.373-.227.714-.105.434.144l-6.4 5.776h-.001.001l-.235 3.52c.345 0 .497-.159.69-.345l1.659-1.613 3.449 2.548c.636.35 1.093.17 1.25-.589l2.265-10.67c.232-.93-.355-1.35-.961-1.076Z"></path></svg><svg id="icon-user" viewBox="0 0 24 24"><path fill-rule="evenodd" clip-rule="evenodd" d="M14.161 7.09a2.16 2.16 0 0 0-2.572-2.122h-.005c-.409.072-.848.349-1.201.806-.352.457-.545 1.003-.545 1.477v1c0 .472.193 1.015.547 1.472.354.458.796.737 1.206.813a2.16 2.16 0 0 0 2.57-2.124V7.091Zm-2.975-4.372a4.446 4.446 0 0 1 5.261 4.373v1.321a4.446 4.446 0 0 1-5.263 4.373h-.004c-1.082-.2-1.984-.864-2.602-1.662-.618-.798-1.025-1.823-1.025-2.871v-1c0-1.047.402-2.073 1.02-2.874.617-.8 1.522-1.467 2.613-1.66Z"></path><path fill-rule="evenodd" clip-rule="evenodd" d="M12 2.286c-5.365 0-9.714 4.349-9.714 9.714S6.635 21.714 12 21.714s9.714-4.349 9.714-9.714S17.365 2.286 12 2.286ZM0 12C0 5.373 5.373 0 12 0s12 5.373 12 12-5.373 12-12 12S0 18.627 0 12Z"></path><path fill-rule="evenodd" clip-rule="evenodd" d="M12 16.447c-2.896 0-5.338 1.664-6.358 3.957a1.143 1.143 0 0 1-2.088-.929C4.952 16.33 8.23 14.161 12 14.161c3.77 0 7.048 2.17 8.446 5.314a1.143 1.143 0 1 1-2.089.929c-1.019-2.293-3.461-3.957-6.357-3.957Z"></path></svg><svg id="icon-vk" viewBox="0 0 18 18"><path d="M16.184 5.141c.105-.349 0-.604-.496-.604h-1.645c-.418 0-.61.221-.715.464 0 0-.836 2.04-2.021 3.361-.383.385-.557.507-.766.507-.104 0-.255-.122-.255-.47V5.14c0-.418-.121-.604-.47-.604H7.231c-.26 0-.418.193-.418.378 0 .396.593.487.653 1.603V8.94c0 .53-.095.627-.305.627-.557 0-1.913-2.047-2.718-4.39-.157-.455-.315-.639-.735-.639H2.064c-.47 0-.564.222-.564.465 0 .436.557 2.596 2.596 5.453 1.359 1.95 3.272 3.008 5.015 3.008 1.045 0 1.174-.234 1.174-.64V11.35c0-.47.1-.564.43-.564.243 0 .662.123 1.637 1.063 1.115 1.114 1.3 1.614 1.926 1.614h1.644c.47 0 .704-.234.569-.698-.148-.461-.68-1.132-1.387-1.926-.384-.454-.957-.941-1.132-1.185-.244-.314-.173-.453 0-.732 0 .001 2.004-2.82 2.212-3.78Z"></path></svg><svg id="icon-youtube" viewBox="0 0 18 18"><path d="M16.546 5.205a1.975 1.975 0 0 0-1.392-1.394C13.925 3.48 9 3.48 9 3.48s-4.925 0-6.154.328a1.97 1.97 0 0 0-1.392 1.394C1.125 6.433 1.125 9 1.125 9s0 2.566.329 3.795a1.974 1.974 0 0 0 1.392 1.394c1.229.33 6.154.33 6.154.33s4.925 0 6.154-.33a1.971 1.971 0 0 0 1.392-1.394c.329-1.229.329-3.795.329-3.795s0-2.566-.329-3.795Zm-9.11 6.15v-4.71l4.078 2.337-4.078 2.373Z"></path></svg></svg>