<svg width="20" height="24" viewBox="0 0 20 24" xmlns="http://www.w3.org/2000/svg">
  <path d="M2.22222 24H17.7778C18.3671 24 18.9324 23.7472 19.3491 23.2971C19.7659 22.847 20 22.2366 20 21.6001V10.8005C20.0008 10.6426 19.9728 10.4861 19.9175 10.3399C19.8622 10.1937 19.7807 10.0607 19.6778 9.94856L10.7889 0.348937C10.5807 0.125445 10.2991 0 10.0055 0C9.71201 0 9.43039 0.125445 9.22221 0.348937L0.333333 9.94856C0.228346 10.0597 0.144824 10.1922 0.0876058 10.3385C0.0303874 10.4847 0.000610277 10.6418 0 10.8005V21.6001C0 22.2366 0.234126 22.847 0.650873 23.2971C1.06762 23.7472 1.63285 24 2.22222 24ZM7.77777 21.6001V15.6003H12.2222V21.6001H7.77777ZM2.22222 11.2925L9.99999 2.89284L17.7778 11.2925V21.6001H14.4444V15.6003C14.4444 14.9638 14.2103 14.3534 13.7936 13.9033C13.3768 13.4533 12.8116 13.2004 12.2222 13.2004H7.77777C7.1884 13.2004 6.62317 13.4533 6.20642 13.9033C5.78968 14.3534 5.55555 14.9638 5.55555 15.6003V21.6001H2.22222V11.2925Z" />
</svg>
