<svg width="148" height="14" viewBox="0 0 148 14" xmlns="http://www.w3.org/2000/svg">
  <path d="M4.99721 2.93663C4.44087 2.93663 3.89032 3.01776 3.34556 3.18003C2.80081 3.33071 2.26764 3.51615 1.74607 3.73637L0.91155 1.61531C1.52585 1.34872 2.17492 1.14009 2.85876 0.989418C3.5426 0.82715 4.2728 0.746016 5.04937 0.746016C5.96502 0.746016 6.77636 0.890898 7.48338 1.18066C8.202 1.45883 8.8047 1.87609 9.29151 2.43244C9.7899 2.97719 10.1666 3.64944 10.4216 4.44919C10.6882 5.23735 10.8215 6.13561 10.8215 7.14399C10.8215 8.41895 10.607 9.53744 10.1782 10.4995C9.74933 11.4499 9.08867 12.1917 8.1962 12.7248C7.31532 13.2464 6.18524 13.5072 4.80597 13.5072C4.09895 13.5072 3.45567 13.455 2.87615 13.3507C2.30821 13.2464 1.72868 13.0841 1.13757 12.8639V10.6559C1.79823 10.8646 2.40673 11.0268 2.96307 11.1427C3.53101 11.2586 4.09315 11.3166 4.6495 11.3166C5.18266 11.3166 5.65208 11.2528 6.05775 11.1253C6.47501 10.9863 6.82272 10.7892 7.1009 10.5342C7.39066 10.2676 7.61667 9.93731 7.77894 9.54323C7.94121 9.13756 8.03393 8.67394 8.05711 8.15237H2.66752V5.99653H8.03973C8.02814 5.50973 7.947 5.08088 7.79633 4.70998C7.64565 4.32749 7.43702 4.00875 7.17044 3.75376C6.90386 3.48718 6.58512 3.28434 6.21422 3.14526C5.85491 3.00617 5.44924 2.93663 4.99721 2.93663ZM24.705 13.3333H22.0797V3.11049H19.0372C18.9677 3.64365 18.8923 4.22318 18.8112 4.84907C18.7416 5.47495 18.6605 6.11243 18.5678 6.7615C18.4866 7.39898 18.3997 8.00749 18.307 8.58701C18.2143 9.15495 18.1215 9.65914 18.0288 10.0996C17.8781 10.8182 17.6753 11.4325 17.4203 11.9425C17.1769 12.4525 16.835 12.8407 16.3946 13.1073C15.9657 13.3739 15.4036 13.5072 14.7081 13.5072C14.4763 13.5072 14.2561 13.4898 14.0475 13.455C13.8388 13.4203 13.6418 13.3739 13.4564 13.316V11.1601C13.607 11.2065 13.7519 11.247 13.891 11.2818C14.0417 11.3166 14.2039 11.334 14.3778 11.334C14.6096 11.334 14.8009 11.2586 14.9515 11.108C15.1022 10.9573 15.2355 10.7023 15.3514 10.343C15.4673 9.97208 15.5832 9.4621 15.6991 8.81303C15.7571 8.53486 15.8266 8.14078 15.9078 7.63079C15.9889 7.10922 16.0816 6.50072 16.1859 5.80528C16.3018 5.09826 16.4177 4.33329 16.5336 3.51036C16.6495 2.67584 16.7597 1.81235 16.864 0.919874H24.705V13.3333ZM36.8075 13.3333H29.662V0.919874H36.8075V3.07571H32.2872V5.80528H36.4946V7.96112H32.2872V11.1601H36.8075V13.3333ZM51.3346 13.3333H48.3442L43.8413 7.03968V13.3333H41.216V0.919874H43.8413V6.93536L48.2921 0.919874H51.0912L46.5709 6.8832L51.3346 13.3333ZM59.5037 13.3333H56.8785V3.11049H53.5056V0.919874H62.8766V3.11049H59.5037V13.3333ZM70.5803 0.919874C72.1797 0.919874 73.3446 1.26759 74.0748 1.96302C74.8166 2.64686 75.1875 3.59149 75.1875 4.79691C75.1875 5.34166 75.1064 5.86324 74.9441 6.36163C74.7818 6.84843 74.5094 7.28887 74.127 7.68295C73.7561 8.06544 73.2635 8.36679 72.6492 8.58701C72.0349 8.80723 71.2757 8.91734 70.3716 8.91734H69.2415V13.3333H66.6163V0.919874H70.5803ZM70.4412 3.07571H69.2415V6.7615H70.1108C70.6092 6.7615 71.0381 6.69776 71.3974 6.57026C71.7567 6.44276 72.0349 6.23993 72.2319 5.96176C72.4289 5.68358 72.5275 5.32428 72.5275 4.88384C72.5275 4.26954 72.3594 3.81751 72.0233 3.52774C71.6871 3.22639 71.1598 3.07571 70.4412 3.07571ZM90.6249 7.10922C90.6249 8.07123 90.5032 8.94632 90.2598 9.73448C90.0279 10.511 89.6686 11.1833 89.1818 11.7512C88.7066 12.3192 88.0923 12.7538 87.3389 13.0552C86.5971 13.3565 85.7221 13.5072 84.7137 13.5072C83.7053 13.5072 82.8244 13.3565 82.071 13.0552C81.3292 12.7422 80.715 12.3076 80.2281 11.7512C79.7529 11.1833 79.3936 10.5052 79.1502 9.71709C78.9184 8.92893 78.8025 8.05385 78.8025 7.09183C78.8025 5.80528 79.0111 4.6868 79.4284 3.73637C79.8573 2.78595 80.5063 2.04995 81.3756 1.52838C82.2565 0.995213 83.375 0.728631 84.7311 0.728631C86.0756 0.728631 87.1825 0.995213 88.0518 1.52838C88.921 2.04995 89.5643 2.79175 89.9816 3.75376C90.4104 4.70418 90.6249 5.82267 90.6249 7.10922ZM81.5669 7.10922C81.5669 7.97851 81.677 8.7261 81.8972 9.35199C82.1174 9.97788 82.4593 10.4589 82.9229 10.795C83.3866 11.1311 83.9835 11.2992 84.7137 11.2992C85.4671 11.2992 86.0698 11.1311 86.5218 10.795C86.9854 10.4589 87.3216 9.97788 87.5302 9.35199C87.7504 8.7261 87.8605 7.97851 87.8605 7.10922C87.8605 5.79949 87.6171 4.77373 87.1303 4.03193C86.6435 3.29014 85.8438 2.91924 84.7311 2.91924C83.9893 2.91924 83.3866 3.0873 82.9229 3.42343C82.4593 3.75956 82.1174 4.24056 81.8972 4.86645C81.677 5.49234 81.5669 6.23993 81.5669 7.10922ZM100.29 2.93663C99.7912 2.93663 99.345 3.03515 98.9509 3.23219C98.5684 3.42923 98.2439 3.71319 97.9773 4.08409C97.7107 4.4434 97.5079 4.88384 97.3688 5.40541C97.2413 5.92698 97.1775 6.51231 97.1775 7.16138C97.1775 8.04226 97.2819 8.79564 97.4905 9.42153C97.7107 10.0358 98.0526 10.5052 98.5162 10.8298C98.9799 11.1543 99.571 11.3166 100.29 11.3166C100.8 11.3166 101.304 11.2586 101.802 11.1427C102.312 11.0268 102.863 10.8646 103.454 10.6559V12.8639C102.909 13.0841 102.37 13.2464 101.837 13.3507C101.304 13.455 100.707 13.5072 100.046 13.5072C98.7712 13.5072 97.7165 13.2464 96.882 12.7248C96.0591 12.1917 95.4505 11.4499 95.0565 10.4995C94.6624 9.53744 94.4654 8.41895 94.4654 7.14399C94.4654 6.20516 94.5929 5.34746 94.8478 4.57089C95.1028 3.78274 95.4737 3.10469 95.9605 2.53675C96.4589 1.96882 97.0674 1.52838 97.786 1.21543C98.5162 0.902489 99.3508 0.746016 100.29 0.746016C100.904 0.746016 101.518 0.82715 102.132 0.989418C102.758 1.14009 103.355 1.34872 103.923 1.61531L103.071 3.75376C102.608 3.53354 102.138 3.3423 101.663 3.18003C101.199 3.01776 100.742 2.93663 100.29 2.93663ZM107.917 0.919874H110.282V6.91798C110.282 7.20774 110.276 7.53227 110.264 7.89158C110.253 8.25089 110.241 8.6044 110.229 8.95211C110.218 9.28824 110.206 9.5838 110.195 9.83879C110.183 10.0822 110.171 10.2503 110.16 10.343H110.212L115.949 0.919874H119.096V13.3333H116.749V7.37001C116.749 7.05706 116.755 6.71514 116.766 6.34424C116.778 5.96176 116.79 5.59665 116.801 5.24894C116.824 4.90122 116.842 4.59987 116.853 4.34488C116.877 4.07829 116.894 3.90444 116.906 3.8233H116.836L111.081 13.3333H107.917V0.919874ZM128.836 13.3333H126.211V3.11049H122.838V0.919874H132.209V3.11049H128.836V13.3333ZM135.949 0.919874H138.313V6.91798C138.313 7.20774 138.308 7.53227 138.296 7.89158C138.284 8.25089 138.273 8.6044 138.261 8.95211C138.25 9.28824 138.238 9.5838 138.227 9.83879C138.215 10.0822 138.203 10.2503 138.192 10.343H138.244L143.981 0.919874H147.128V13.3333H144.781V7.37001C144.781 7.05706 144.787 6.71514 144.798 6.34424C144.81 5.96176 144.822 5.59665 144.833 5.24894C144.856 4.90122 144.874 4.59987 144.885 4.34488C144.908 4.07829 144.926 3.90444 144.937 3.8233H144.868L139.113 13.3333H135.949V0.919874Z" />
</svg>
